HIERARCHY
ROOT Hips
{
	OFFSET 0.000000 0.000000 0.000000
	CHANNELS 6 Xposition Yposition Zposition Xrotation Yrotation Zrotation
	JOINT LeftUpLeg_virtual
	{
		OFFSET 0.000000 0.000000 0.000000
		CHANNELS 3 Xrotation Yrotation Zrotation
		JOINT LeftUpLeg
		{
			OFFSET 15.427100 -6.655098 0.678600
			CHANNELS 3 Xrotation Yrotation Zrotation
			JOINT LeftLeg
			{
				OFFSET 4.081073 -39.591068 13.024000
				CHANNELS 3 Xrotation Yrotation Zrotation
				JOINT LeftFoot
				{
					OFFSET -4.081074 -37.707932 -15.979700
					CHANNELS 3 Xrotation Yrotation Zrotation
					JOINT LeftToeBase
					{
						OFFSET 5.346399 -15.068900 20.645000
						CHANNELS 3 Xrotation Yrotation Zrotation
						JOINT LeftToe_End
						{
							OFFSET 2.754700 0.931300 11.300900
							CHANNELS 3 Xrotation Yrotation Zrotation
							End Site
							{
								OFFSET 0 0 0
							}
						}
					}
				}
			}
		}
	}
	JOINT RightUpLeg_virtual
	{
		OFFSET 0.000000 0.000000 0.000000
		CHANNELS 3 Xrotation Yrotation Zrotation
		JOINT RightUpLeg
		{
			OFFSET -15.569500 -6.655098 0.678600
			CHANNELS 3 Xrotation Yrotation Zrotation
			JOINT RightLeg
			{
				OFFSET -4.081825 -39.591045 13.023800
				CHANNELS 3 Xrotation Yrotation Zrotation
				JOINT RightFoot
				{
					OFFSET 4.081824 -37.707954 -15.979600
					CHANNELS 3 Xrotation Yrotation Zrotation
					JOINT RightToeBase
					{
						OFFSET -5.346400 -15.068900 20.645000
						CHANNELS 3 Xrotation Yrotation Zrotation
						JOINT RightToe_End
						{
							OFFSET -2.754700 0.931300 11.300900
							CHANNELS 3 Xrotation Yrotation Zrotation
							End Site
							{
								OFFSET 0 0 0
							}
						}
					}
				}
			}
		}
	}
	JOINT Spine_virtual
	{
		OFFSET 0.000000 0.000000 0.000000
		CHANNELS 3 Xrotation Yrotation Zrotation
		JOINT Spine
		{
			OFFSET -0.279200 12.230698 -2.892100
			CHANNELS 3 Xrotation Yrotation Zrotation
			JOINT Spine1
			{
				OFFSET -0.232667 10.192268 -1.242267
				CHANNELS 3 Xrotation Yrotation Zrotation
				JOINT Spine1_split
				{
					OFFSET -0.232667 10.192268 -1.242267
					CHANNELS 3 Xrotation Yrotation Zrotation
					JOINT Spine2
					{
						OFFSET -0.232667 10.192268 -1.242267
						CHANNELS 3 Xrotation Yrotation Zrotation
						JOINT Neck_virtual
						{
							OFFSET 0.000000 0.000000 0.000000
							CHANNELS 3 Xrotation Yrotation Zrotation
							JOINT Neck
							{
								OFFSET -0.418800 17.814194 8.416900
								CHANNELS 3 Xrotation Yrotation Zrotation
								JOINT Head
								{
									OFFSET 0.000000 7.031097 3.806800
									CHANNELS 3 Xrotation Yrotation Zrotation
									JOINT HeadTop_End
									{
										OFFSET 0.000000 24.646606 12.978600
										CHANNELS 3 Xrotation Yrotation Zrotation
										End Site
										{
											OFFSET 0 0 0
										}
									}
								}
							}
						}
						JOINT LeftShoulder_virtual
						{
							OFFSET 0.000000 0.000000 0.000000
							CHANNELS 3 Xrotation Yrotation Zrotation
							JOINT LeftShoulder
							{
								OFFSET 8.476499 7.247704 -3.868750
								CHANNELS 3 Xrotation Yrotation Zrotation
								JOINT LeftShoulder_split
								{
									OFFSET 8.476499 7.247704 -3.868750
									CHANNELS 3 Xrotation Yrotation Zrotation
									JOINT LeftArm
									{
										OFFSET 9.308998 -2.777710 0.208600
										CHANNELS 3 Xrotation Yrotation Zrotation
										JOINT LeftForeArm
										{
											OFFSET 29.972298 0.000000 0.000000
											CHANNELS 3 Xrotation Yrotation Zrotation
											JOINT LeftHand
											{
												OFFSET 26.026505 0.000000 0.000000
												CHANNELS 3 Xrotation Yrotation Zrotation
												End Site
												{
													OFFSET 0 0 0
												}
											}
										}
									}
								}
							}
						}
						JOINT RightShoulder_virtual
						{
							OFFSET 0.000000 0.000000 0.000000
							CHANNELS 3 Xrotation Yrotation Zrotation
							JOINT RightShoulder
							{
								OFFSET -7.570500 7.247704 -3.868750
								CHANNELS 3 Xrotation Yrotation Zrotation
								JOINT RightShoulder_split
								{
									OFFSET -7.570500 7.247704 -3.868750
									CHANNELS 3 Xrotation Yrotation Zrotation
									JOINT RightArm
									{
										OFFSET -9.308998 -2.777710 0.208500
										CHANNELS 3 Xrotation Yrotation Zrotation
										JOINT RightForeArm
										{
											OFFSET -29.972300 0.000000 0.000000
											CHANNELS 3 Xrotation Yrotation Zrotation
											JOINT RightHand
											{
												OFFSET -26.026505 0.000000 0.000000
												CHANNELS 3 Xrotation Yrotation Zrotation
												End Site
												{
													OFFSET 0 0 0
												}
											}
										}
									}
								}
							}
						}
					}
				}
			}
		}
	}
}
MOTION
Frames: 8
Frame Time: 0.03333333
-1.189567 89.256531 -0.202045 0.000000 0.000000 0.000000 -25.042947 -11.953323 -2.502328 9.265346 21.764055 13.974325 30.888154 10.695423 -11.634208 -18.581707 26.784061 9.704907 -1.402142 -0.743302 -3.410346 0.000000 0.000000 0.000000 -23.795245 -12.229015 -2.713968 19.282285 -11.803252 -5.109624 29.138475 -8.376634 -0.101630 -24.732147 -28.467936 0.577236 -5.999943 -0.328826 1.418703 0.000000 0.000000 0.000000 -23.720962 -10.245338 -2.009327 9.838975 -4.015966 -0.244302 3.306577 -1.094469 -0.059581 0.656577 1.333538 -0.018036 0.000000 0.000000 0.000000 3.463397 -2.117314 0.094937 2.645030 2.143640 -4.496389 -4.498235 -0.492418 3.581975 0.000000 0.000000 0.000000 3.963688 -2.458242 0.221642 1.079023 -15.433161 -11.114672 0.610923 -0.730115 -0.384588 -20.714883 0.333657 -39.107378 2.981591 -67.083188 2.756705 0.000000 0.000000 0.000000 3.345925 -2.157922 0.165520 -0.252245 13.076850 16.461500 2.190393 4.002475 -1.801349 -10.385071 -6.850987 62.516885 -0.419294 42.815625 1.486578 0.000000 0.000000 0.000000 
-1.501562 88.852417 -0.290085 0.000000 0.000000 0.000000 -25.183276 -12.390594 -2.800822 8.567322 21.735547 15.058614 31.711417 10.231810 -11.750023 -17.933048 26.069570 9.364642 -0.989836 -0.454035 -4.258622 0.000000 0.000000 0.000000 -23.856121 -11.708741 -2.760454 19.204982 -12.018438 -4.754338 28.881356 -8.624284 -0.073939 -25.257027 -28.370219 0.300417 -5.962905 -0.272779 1.281110 0.000000 0.000000 0.000000 -23.944026 -10.362647 -2.394339 10.176118 -4.269883 -0.258783 3.282544 -1.170500 -0.043717 0.719812 0.892867 0.103864 0.000000 0.000000 0.000000 3.568163 -2.143272 0.110931 2.619818 2.072341 -4.337728 -4.558706 -0.653288 3.767895 0.000000 0.000000 0.000000 3.949484 -2.480494 0.243628 1.057176 -15.427558 -11.153976 0.601830 -0.919953 -0.192083 -20.856710 0.138542 -39.302223 3.095107 -67.323713 2.882689 0.000000 0.000000 0.000000 3.310530 -2.205000 0.188870 -0.275345 13.037454 16.509525 2.246299 3.439718 -1.698341 -10.555151 -6.957165 62.475105 -0.400038 42.786501 1.484071 0.000000 0.000000 0.000000 
-2.165596 88.305466 -0.215256 0.000000 0.000000 0.000000 -25.288654 -13.082740 -3.636081 6.400242 21.233877 17.330748 33.992035 9.277009 -11.766141 -16.716516 24.361526 8.606189 -0.423602 -0.196338 -5.175414 0.000000 0.000000 0.000000 -24.015307 -11.609761 -3.415669 19.487167 -12.456087 -4.002704 28.397676 -8.653090 0.249297 -26.343351 -27.882598 -0.291462 -4.911674 -0.175573 1.076960 0.000000 0.000000 0.000000 -24.050344 -11.110723 -3.391811 10.485890 -4.526398 -0.036396 3.247618 -1.263276 -0.022960 0.735357 0.615457 0.376850 0.000000 0.000000 0.000000 3.702190 -2.173207 0.104019 2.466008 1.927959 -4.053842 -4.789000 -1.036419 4.190660 0.000000 0.000000 0.000000 3.957522 -2.508907 0.256834 1.034635 -15.321409 -11.135886 0.527811 -1.042243 -0.128400 -21.320304 0.051174 -39.452419 3.237165 -67.407936 3.065248 0.000000 0.000000 0.000000 3.264584 -2.291066 0.181819 -0.319127 12.969500 16.565731 2.209313 3.105224 -1.575863 -10.789573 -7.029392 62.344061 -0.387232 42.701605 1.534627 0.000000 0.000000 0.000000 
-2.796928 87.797821 -0.089733 0.000000 0.000000 0.000000 -25.357111 -13.916956 -4.794741 3.372295 20.106626 19.958277 36.837758 7.937356 -11.524167 -15.530720 21.616077 7.338295 -0.174834 -0.027999 -5.656259 0.000000 0.000000 0.000000 -24.238122 -12.179347 -4.519462 19.977704 -12.938094 -3.209476 27.855016 -8.316775 0.786907 -27.383133 -27.121916 -0.819418 -3.516829 -0.060178 0.854279 0.000000 0.000000 0.000000 -24.014327 -12.512370 -4.738706 10.695508 -4.724184 0.367952 3.221491 -1.325841 -0.010239 0.887353 0.569107 0.526527 0.000000 0.000000 0.000000 3.816048 -2.196717 0.076433 2.241307 1.755597 -3.754532 -5.146016 -1.541028 4.689187 0.000000 0.000000 0.000000 3.973530 -2.536264 0.255423 1.007711 -15.170243 -11.069901 0.329836 -1.106623 -0.235345 -21.874615 0.113399 -39.495282 3.322963 -67.275219 3.207575 0.000000 0.000000 0.000000 3.226256 -2.382460 0.156232 -0.357143 12.906174 16.617236 2.085757 3.021064 -1.569988 -10.979464 -7.089957 62.153444 -0.379349 42.556774 1.625138 0.000000 0.000000 0.000000 
-3.245478 87.465851 0.203846 0.000000 0.000000 0.000000 -25.457175 -14.933000 -6.053683 0.512670 18.300331 21.786306 39.194480 6.407607 -10.871552 -14.854297 17.967361 5.388189 -0.565565 0.024896 -5.316499 0.000000 0.000000 0.000000 -24.501360 -13.428236 -5.774950 20.519833 -13.302104 -2.775548 27.299062 -7.370942 1.431227 -27.667274 -26.198529 -0.628404 -2.796817 0.034553 0.657421 0.000000 0.000000 0.000000 -23.931426 -14.559803 -6.135015 10.820217 -4.862182 0.790468 3.214328 -1.344635 -0.015036 1.032649 0.614740 0.500417 0.000000 0.000000 0.000000 3.868253 -2.211884 0.043890 2.059063 1.649850 -3.536943 -5.517607 -1.947758 5.088527 0.000000 0.000000 0.000000 3.989219 -2.559391 0.244045 0.983633 -15.044089 -10.973206 0.130915 -1.131039 -0.473252 -22.249490 0.274325 -39.406971 3.300883 -67.050068 3.235125 0.000000 0.000000 0.000000 3.203029 -2.450474 0.124542 -0.361266 12.842324 16.634716 1.934273 3.066961 -1.631400 -11.041067 -7.140608 61.940820 -0.367092 42.355898 1.718665 0.000000 0.000000 0.000000 
-3.399448 87.346222 0.724365 0.000000 0.000000 0.000000 -25.494009 -16.227206 -7.149720 -1.443139 16.071544 21.882359 40.540707 4.951096 -9.820373 -14.866839 13.959555 2.715744 -1.324306 -0.075840 -4.192712 0.000000 0.000000 0.000000 -24.666024 -15.333025 -6.881617 20.884424 -13.425868 -2.925123 26.749816 -5.817527 2.044274 -27.013118 -25.164008 0.337834 -2.898169 0.105155 0.525804 0.000000 0.000000 0.000000 -23.998066 -17.161895 -7.374453 10.859555 -4.946683 1.083889 3.220563 -1.328605 -0.025147 0.896103 0.853361 0.390245 0.000000 0.000000 0.000000 3.849532 -2.226730 0.019325 1.990774 1.668320 -3.482421 -5.793553 -2.071691 5.251238 0.000000 0.000000 0.000000 3.998622 -2.579484 0.222924 0.962729 -15.002654 -10.880978 0.026109 -1.087739 -0.670090 -22.286702 0.484652 -39.232275 3.175398 -66.872231 3.127716 0.000000 0.000000 0.000000 3.189903 -2.484149 0.110125 -0.320490 12.796752 16.606627 1.746794 3.134423 -1.694043 -10.930324 -7.206609 61.757006 -0.339933 42.183617 1.777313 0.000000 0.000000 0.000000 
-3.309759 87.373299 1.422802 0.000000 0.000000 0.000000 -25.522837 -18.091709 -8.044552 -2.164773 13.745075 20.116623 40.730699 3.852923 -8.354949 -15.387856 10.274975 -0.374737 -2.230081 -0.256383 -2.549310 0.000000 0.000000 0.000000 -24.853537 -17.931345 -7.772334 20.861267 -13.232585 -3.593504 26.174480 -3.888525 2.553871 -25.880400 -24.006168 1.519240 -3.056430 0.154173 0.513357 0.000000 0.000000 0.000000 -24.308636 -19.984162 -8.358949 10.869544 -5.022783 1.154205 3.235328 -1.314131 -0.030537 0.751770 1.038851 0.186492 0.000000 0.000000 0.000000 3.789301 -2.241584 0.010849 2.082024 1.786061 -3.599140 -5.896715 -1.922010 5.153219 0.000000 0.000000 0.000000 3.984793 -2.601267 0.216856 0.946295 -15.048677 -10.805504 -0.028084 -1.020021 -0.738855 -22.021377 0.665905 -39.058324 2.948606 -66.828729 2.891990 0.000000 0.000000 0.000000 3.173830 -2.489009 0.131888 -0.234851 12.744497 16.528365 1.531902 3.176324 -1.718381 -10.660476 -7.310299 61.626925 -0.299806 42.066312 1.774668 0.000000 0.000000 0.000000 
-3.031905 87.509476 2.139618 0.000000 0.000000 0.000000 -25.687814 -20.858947 -8.882474 -1.716139 11.522871 16.783744 39.894602 3.517992 -6.528399 -16.260493 7.659486 -3.213562 -2.710304 -0.408613 -0.952008 0.000000 0.000000 0.000000 -25.058379 -20.902197 -8.519312 20.455054 -12.877168 -4.560775 25.618081 -1.908178 2.964129 -24.855127 -22.793625 2.373244 -2.686734 0.197202 0.638544 0.000000 0.000000 0.000000 -24.815734 -22.765731 -9.225362 10.897805 -5.088530 1.009053 3.236273 -1.322410 -0.013365 0.653493 1.066054 -0.025688 0.000000 0.000000 0.000000 3.723534 -2.249332 0.032720 2.296841 1.940210 -3.807675 -5.786117 -1.627072 4.876787 0.000000 0.000000 0.000000 3.947879 -2.622107 0.233720 0.942864 -15.157091 -10.759271 0.074011 -0.968853 -0.635475 -21.617436 0.719621 -38.961001 2.664975 -66.907515 2.570753 0.000000 0.000000 0.000000 3.156339 -2.478126 0.187998 -0.122364 12.679322 16.418146 1.284066 3.164600 -1.717229 -10.257111 -7.403373 61.575439 -0.252199 41.981990 1.703732 0.000000 0.000000 0.000000 
